<svg width="5227" height="1214" viewBox="0 0 5227 1214" fill="none" xmlns="http://www.w3.org/2000/svg">
<g clip-path="url(#clip0_344_2)">
<path d="M5227 728.4L4355.83 748.716C3484.67 768.041 1742.33 810.159 -7.62939e-06 728.4C-1742.33 646.641 -3484.67 445.959 -5227 343.884C-6969.33 242.8 -8711.67 242.8 -10454 222.484C-12196.3 203.159 -13938.7 161.041 -15681 202.416C-17423.3 242.8 -19165.7 364.2 -20908 424.9C-22650.3 485.6 -24392.7 485.6 -26135 586.684C-27877.3 688.759 -29619.7 889.441 -31362 950.884C-33104.3 1010.84 -34846.7 931.559 -36589 890.184C-38331.3 849.8 -40073.7 849.8 -41816 728.4C-43558.3 607 -45300.7 364.2 -47043 384.516C-48785.3 403.841 -50527.7 688.759 -52270 728.4C-54012.3 768.041 -55754.7 567.359 -57497 546.3C-59239.3 525.241 -60981.7 688.759 -62724 789.1C-64466.3 889.441 -66208.7 931.559 -67951 829.484C-69693.3 728.4 -71435.7 485.6 -73178 424.9C-74920.3 364.2 -76662.7 485.6 -78405 505.916C-80147.3 525.241 -81889.7 445.959 -83632 384.516C-85374.3 324.559 -87116.7 282.441 -88859 303.5C-90601.3 324.559 -92343.7 403.841 -94086 505.916C-95828.3 607 -97570.7 728.4 -99313 667.7C-101055 607 -102798 364.2 -104540 263.116C-106282 161.041 -108025 203.159 -109767 263.116C-111509 324.559 -113252 403.841 -114994 525.984C-116736 646.641 -118479 810.159 -119350 890.184L-120221 971.2V2.11174e-05H-119350C-118479 2.11174e-05 -116736 2.11174e-05 -114994 2.11174e-05C-113252 2.11174e-05 -111509 2.11174e-05 -109767 2.11174e-05C-108025 2.11174e-05 -106282 2.11174e-05 -104540 2.11174e-05C-102798 2.11174e-05 -101055 2.11174e-05 -99313 2.11174e-05C-97570.7 2.11174e-05 -95828.3 2.11174e-05 -94086 2.11174e-05C-92343.7 2.11174e-05 -90601.3 2.11174e-05 -88859 2.11174e-05C-87116.7 2.11174e-05 -85374.3 2.11174e-05 -83632 2.11174e-05C-81889.7 2.11174e-05 -80147.3 2.11174e-05 -78405 2.11174e-05C-76662.7 2.11174e-05 -74920.3 2.11174e-05 -73178 2.11174e-05C-71435.7 2.11174e-05 -69693.3 2.11174e-05 -67951 2.11174e-05C-66208.7 2.11174e-05 -64466.3 2.11174e-05 -62724 2.11174e-05C-60981.7 2.11174e-05 -59239.3 2.11174e-05 -57497 2.11174e-05C-55754.7 2.11174e-05 -54012.3 2.11174e-05 -52270 2.11174e-05C-50527.7 2.11174e-05 -48785.3 2.11174e-05 -47043 2.11174e-05C-45300.7 2.11174e-05 -43558.3 2.11174e-05 -41816 2.11174e-05C-40073.7 2.11174e-05 -38331.3 2.11174e-05 -36589 2.11174e-05C-34846.7 2.11174e-05 -33104.3 2.11174e-05 -31362 2.11174e-05C-29619.7 2.11174e-05 -27877.3 2.11174e-05 -26135 2.11174e-05C-24392.7 2.11174e-05 -22650.3 2.11174e-05 -20908 2.11174e-05C-19165.7 2.11174e-05 -17423.3 2.11174e-05 -15681 2.11174e-05C-13938.7 2.11174e-05 -12196.3 2.11174e-05 -10454 2.11174e-05C-8711.67 2.11174e-05 -6969.33 2.11174e-05 -5227 2.11174e-05C-3484.67 2.11174e-05 -1742.33 2.11174e-05 -7.62939e-06 2.11174e-05C1742.33 2.11174e-05 3484.67 2.11174e-05 4355.83 2.11174e-05H5227V728.4Z" fill="url(#paint0_linear_344_2)"/>
</g>
<defs>
<linearGradient id="paint0_linear_344_2" x1="5227" y1="0" x2="5227" y2="972.528" gradientUnits="userSpaceOnUse">
<stop offset="0.05" stop-color="#E6C7AA"/>
<stop offset="1" stop-color="#482407"/>
</linearGradient>
<clipPath id="clip0_344_2">
<rect width="5227" height="1214" fill="white" transform="matrix(-1 0 0 -1 5227 1214)"/>
</clipPath>
</defs>
</svg>
