<svg width="200" height="200" viewBox="0 0 200 200" fill="none" xmlns="http://www.w3.org/2000/svg">
<path d="M150 59.6667C149.5 59.5834 148.917 59.5834 148.417 59.6667C136.917 59.2501 127.75 49.8334 127.75 38.1667C127.75 26.2501 137.333 16.6667 149.25 16.6667C161.167 16.6667 170.75 26.3334 170.75 38.1667C170.667 49.8334 161.5 59.2501 150 59.6667Z" stroke="black" stroke-width="20" stroke-linecap="round" stroke-linejoin="round"/>
<path d="M141.416 120.333C152.833 122.25 165.416 120.25 174.249 114.333C185.999 106.5 185.999 93.6666 174.249 85.8332C165.333 79.9169 152.583 77.9168 141.166 79.9168" stroke="black" stroke-width="20" stroke-linecap="round" stroke-linejoin="round"/>
<path d="M49.75 59.6667C50.25 59.5834 50.8333 59.5834 51.3333 59.6667C62.8333 59.2501 72 49.8334 72 38.1667C72 26.2501 62.4167 16.6667 50.5 16.6667C38.5833 16.6667 29 26.3334 29 38.1667C29.0833 49.8334 38.25 59.2501 49.75 59.6667Z" stroke="black" stroke-width="20" stroke-linecap="round" stroke-linejoin="round"/>
<path d="M58.3324 120.333C46.9157 122.25 34.3324 120.25 25.499 114.333C13.749 106.5 13.749 93.6666 25.499 85.8332C34.4157 79.9169 47.1657 77.9168 58.5824 79.9168" stroke="black" stroke-width="20" stroke-linecap="round" stroke-linejoin="round"/>
<path d="M100 121.917C99.5003 121.833 98.917 121.833 98.417 121.917C86.917 121.5 77.75 112.083 77.75 100.417C77.75 88.5001 87.3337 78.9165 99.2503 78.9165C111.167 78.9165 120.75 88.5834 120.75 100.417C120.667 112.083 111.5 121.583 100 121.917Z" stroke="black" stroke-width="20" stroke-linecap="round" stroke-linejoin="round"/>
<path d="M75.75 148.167C64 156 64 168.833 75.75 176.667C89.0836 185.583 110.917 185.583 124.25 176.667C136 168.833 136 156 124.25 148.167C111 139.333 89.0836 139.333 75.75 148.167Z" stroke="black" stroke-width="20" stroke-linecap="round" stroke-linejoin="round"/>
</svg>
