<svg width="200" height="200" viewBox="0 0 200 200" fill="none" xmlns="http://www.w3.org/2000/svg">
<path d="M74.0726 121.178C71.9848 117.132 67.0255 115.506 62.9414 117.548C58.8249 119.607 57.1564 124.612 59.2146 128.728C59.9018 130.098 60.7768 131.382 61.6942 132.606C63.2176 134.637 65.5172 137.253 68.754 139.842C75.3334 145.106 85.4772 150.002 100.001 150.002C114.526 150.002 124.67 145.106 131.249 139.842C134.486 137.253 136.786 134.637 138.309 132.606C139.23 131.378 140.067 130.094 140.784 128.737C142.822 124.675 141.126 119.581 137.061 117.548C132.977 115.506 128.018 117.132 125.931 121.178C125.816 121.386 124.247 124.1 120.837 126.828C117.001 129.897 110.477 133.335 100.001 133.335C89.5255 133.335 83.0029 129.897 79.1656 126.828C75.7556 124.1 74.1876 121.386 74.0726 121.178Z" fill="black"/>
<path d="M54.167 58.3333C41.667 58.3333 41.667 72.2222 41.667 72.2222C41.667 83.3333 62.5003 99.9999 66.667 99.9999C70.8337 99.9999 91.667 83.3333 91.667 72.2222C91.667 72.2222 91.667 58.3333 79.167 58.3333C66.667 58.3333 66.667 74.9999 66.667 74.9999C66.667 74.9999 66.667 58.3333 54.167 58.3333Z" fill="black"/>
<path d="M108.333 72.2222C108.333 72.2222 108.333 58.3333 120.833 58.3333C133.333 58.3333 133.333 74.9999 133.333 74.9999C133.333 74.9999 133.333 58.3333 145.833 58.3333C158.333 58.3333 158.333 72.2222 158.333 72.2222C158.333 83.3333 137.5 99.9999 133.333 99.9999C129.166 99.9999 108.333 83.3333 108.333 72.2222Z" fill="black"/>
<path fill-rule="evenodd" clip-rule="evenodd" d="M99.9997 191.667C150.626 191.667 191.666 150.626 191.666 99.9999C191.666 49.3738 150.626 8.33325 99.9997 8.33325C49.3736 8.33325 8.33301 49.3738 8.33301 99.9999C8.33301 150.626 49.3736 191.667 99.9997 191.667ZM99.9997 174.943C58.6098 174.943 25.0566 141.39 25.0566 99.9999C25.0566 58.61 58.6098 25.0568 99.9997 25.0568C141.39 25.0568 174.943 58.61 174.943 99.9999C174.943 141.39 141.39 174.943 99.9997 174.943Z" fill="black"/>
</svg>
