<svg width="201" height="200" viewBox="0 0 201 200" fill="none" xmlns="http://www.w3.org/2000/svg">
<path d="M142.166 20.4665C148.346 21.6457 152.009 22.9417 155.174 26.8403C159.139 31.7228 158.929 36.9999 158.51 47.554C157.004 85.4959 148.501 133.333 100.501 133.333C52.5016 133.333 43.9984 85.4959 42.4921 47.554C42.0731 36.9999 41.8636 31.7228 45.8279 26.8403C49.7922 21.9579 54.5369 21.1573 64.0263 19.5562C73.3935 17.9758 85.6382 16.6667 100.501 16.6667C106.486 16.6667 112.047 16.8791 117.166 17.2358" stroke="black" stroke-width="20" stroke-linecap="round"/>
<path d="M158.833 41.6667L166.738 44.3018C174.989 47.052 179.114 48.4271 181.473 51.7007C183.833 54.9744 183.833 59.3228 183.832 68.0196V68.624C183.832 75.7968 183.832 79.3832 182.106 82.3175C180.379 85.2517 177.244 86.9934 170.974 90.4767L146.333 104.167" stroke="black" stroke-width="20"/>
<path d="M42.1665 41.6667L34.2613 44.3018C26.0108 47.052 21.8856 48.4271 19.5262 51.7007C17.1667 54.9744 17.1667 59.3228 17.167 68.0196V68.624C17.1672 75.7968 17.1673 79.3832 18.8939 82.3175C20.6204 85.2517 23.7556 86.9934 30.0257 90.4767L54.6665 104.167" stroke="black" stroke-width="20"/>
<path d="M100.5 141.667V158.333" stroke="black" stroke-width="20" stroke-linecap="round"/>
<path d="M129.666 183.333H71.333L74.1598 169.199C74.9389 165.304 78.359 162.5 82.3313 162.5H118.668C122.641 162.5 126.061 165.304 126.84 169.199L129.666 183.333Z" stroke="black" stroke-width="20" stroke-linecap="round" stroke-linejoin="round"/>
<path d="M150.5 183.333H50.5" stroke="black" stroke-width="20" stroke-linecap="round"/>
</svg>
