<svg width="100" height="100" viewBox="0 0 100 100" fill="none" xmlns="http://www.w3.org/2000/svg">
<g clip-path="url(#clip0_113_185)">
<path fill-rule="evenodd" clip-rule="evenodd" d="M50 0C77.6143 0 100 22.3857 100 50C100 77.6143 77.6143 100 50 100C22.3857 100 0 77.6143 0 50C0 22.3857 22.3857 0 50 0Z" fill="black"/>
<path d="M62.234 30.7715H68.7576L54.5051 47.0619L71.2727 69.2289H58.1434L47.8607 55.7844L36.0947 69.2289H29.5668L44.8113 51.8047L28.7266 30.7715H42.1883L51.4832 43.06L62.234 30.7715ZM59.9441 65.3238H63.5594L40.2242 34.4715H36.3453L59.9441 65.3238Z" fill="white"/>
</g>
<defs>
<clipPath id="clip0_113_185">
<rect width="100" height="100" fill="white"/>
</clipPath>
</defs>
</svg>
