<svg width="112" height="113" viewBox="0 0 112 113" fill="none" xmlns="http://www.w3.org/2000/svg">
<path d="M43.4257 3.58274C36.0923 7.31608 32.0923 13.1827 30.0923 22.7827C27.559 34.7827 31.159 52.3827 37.4257 59.4494C39.2923 61.3161 38.4923 61.8494 29.8257 65.3161C9.29235 73.3161 3.55901 79.4494 0.759012 96.5161C-0.574321 104.249 1.29235 110.249 5.42568 111.849C8.35901 112.916 103.826 112.916 106.759 111.849C107.826 111.316 109.692 109.316 110.759 107.316C114.359 100.383 109.292 82.6494 101.826 75.7161C98.359 72.5161 85.4257 65.8494 77.8257 63.4494L72.8923 61.8494L76.759 55.8494C84.4923 43.5827 84.759 22.2494 77.2923 10.9161C70.759 1.04941 55.159 -2.28393 43.4257 3.58274ZM66.759 13.9827C71.559 18.5161 73.159 24.9161 72.4923 36.2494C71.959 44.6494 71.159 47.0494 67.559 52.1161C63.159 58.3827 62.0924 65.8494 65.159 68.3827C66.0923 69.1827 71.8257 71.5827 77.959 73.8494C84.0923 76.1161 91.0257 79.4494 93.4257 81.1827C97.8257 84.6494 102.092 93.9827 102.092 100.249V103.316H56.0924H10.0923V100.249C10.0923 93.9827 14.359 84.6494 18.6257 81.3161C20.8923 79.5827 27.959 76.2494 34.0923 73.8494C40.359 71.5827 46.2257 69.0494 47.159 68.2494C50.2257 65.8494 49.0257 58.3827 44.4923 51.9827C40.6257 46.5161 40.2257 44.7827 39.6923 34.3827C39.2923 23.7161 39.4257 22.2494 42.359 17.9827C44.0924 15.4494 47.0257 12.5161 48.759 11.5827C53.559 9.04941 62.8923 10.3827 66.759 13.9827Z" fill="#6E7C76"/>
</svg>
