<svg width="142" height="132" viewBox="0 0 142 132" fill="none" xmlns="http://www.w3.org/2000/svg">
<path d="M40.6724 3.27436C18.7693 10.1362 4.56651 25.1076 0.973035 44.9135C-3.30491 69.3979 10.2134 92.6347 34.6833 102.928C42.8969 106.514 46.8326 107.138 59.8376 107.138C74.0404 107.138 76.0938 106.67 85.5053 101.992L95.6013 97.0013L114.595 114.156L133.589 131.467L138.381 127.412C144.028 122.577 145.225 124.293 121.782 102.928L105.013 87.4883L108.606 82.9657C114.253 75.7919 117.333 65.811 117.504 54.7384C117.504 41.6385 114.938 34.3088 107.066 23.5481C92.35 4.05412 64.8 -4.36728 40.6724 3.27436ZM79.1739 16.8422C95.259 24.1719 103.986 37.1159 104.157 54.1146C104.157 71.1134 96.1146 82.9657 79.3451 90.6073C61.891 98.5609 45.2926 97.0013 30.2342 86.0847C10.0423 71.7372 7.47552 44.7575 24.2451 26.979C37.4212 12.7874 60.8643 8.57672 79.1739 16.8422Z" fill="#6E7C76"/>
</svg>
