<svg width="512" height="512" viewBox="0 0 512 512" fill="none" xmlns="http://www.w3.org/2000/svg">
<path d="M296 50.9999C296.855 51.1662 297.71 51.3325 298.59 51.5038C318.412 55.4748 337.262 62.3253 355 71.9999C355.896 72.479 355.896 72.479 356.81 72.9677C404.374 98.4993 439.646 143.826 455.879 194.996C457.313 199.956 458.516 204.972 459.688 210C459.89 210.865 460.093 211.731 460.302 212.623C463.505 227.007 464.377 241.015 464.313 255.687C464.31 256.573 464.308 257.458 464.306 258.37C464.256 271.158 463.852 283.49 461 296C460.812 296.899 460.624 297.798 460.43 298.724C452.492 336.396 434.564 371.104 408 399C407.446 399.586 406.892 400.173 406.321 400.777C377.846 430.745 341.893 450.421 301.688 459.812C300.853 460.008 300.019 460.203 299.16 460.404C284.869 463.537 270.703 464.41 256.125 464.375C255.277 464.374 254.428 464.374 253.554 464.373C211.791 464.251 169.938 451.875 136 427C134.948 426.232 133.896 425.463 132.813 424.672C125.66 419.352 118.968 413.619 112.527 407.459C111.497 406.475 110.462 405.495 109.422 404.521C100.166 395.822 92.3664 386.339 85.0001 376C84.5881 375.422 84.1761 374.844 83.7516 374.248C59.6991 339.927 47.5271 299.393 47.6251 257.687C47.6256 256.813 47.6262 255.938 47.6267 255.037C47.6908 232.532 50.8929 211.407 58.0001 190C58.2345 189.292 58.469 188.585 58.7105 187.855C67.8752 160.795 82.555 136.263 101.914 115.273C103.852 113.161 105.71 111 107.563 108.812C111.077 104.803 114.89 101.388 119 97.9999C119.516 97.5666 120.031 97.1333 120.563 96.6869C129.872 88.8826 139.462 82.0444 150 75.9999C150.776 75.5526 151.551 75.1053 152.35 74.6444C172.579 63.1336 194.179 55.4622 217 50.9999C217.781 50.8376 218.561 50.6754 219.366 50.5082C243.862 45.5579 271.555 46.1041 296 50.9999ZM135.566 128.485C134.039 129.962 132.492 131.415 130.942 132.867C101.243 161.079 81.8902 204.234 80.7371 245.204C80.6728 248.865 80.6691 252.525 80.6876 256.187C80.6898 256.957 80.6919 257.728 80.6941 258.521C80.7467 270.241 81.1917 281.57 84.0001 293C84.2981 294.238 84.2981 294.238 84.6021 295.501C92.555 327.61 108.092 355.239 131 379C131.763 379.826 132.526 380.652 133.313 381.504C160.453 410.066 202.319 429.311 241.74 431.177C260.521 431.476 278.6 431.334 297 427C297.763 426.823 298.527 426.647 299.313 426.465C328.265 419.496 355.188 404.128 376.473 383.48C377.94 382.058 379.422 380.654 380.906 379.25C404.297 356.647 420.299 325.857 427.48 294.285C427.807 292.85 428.145 291.417 428.501 289.988C433.803 268.361 433.304 241.562 428 220C427.679 218.52 427.358 217.039 427.039 215.559C421.462 191.1 410.045 168.908 395 149C394.316 148.089 393.631 147.177 392.926 146.238C364.393 109.879 322.495 87.3504 276.863 81.4179C225.379 76.1455 172.901 92.2417 135.566 128.485Z" fill="#556866"/>
<path d="M262 144C266.968 146.306 269.374 149.249 272 154C272.537 156.87 272.508 159.663 272.454 162.576C272.455 163.415 272.455 164.255 272.456 165.12C272.453 167.88 272.422 170.639 272.391 173.398C272.383 175.318 272.377 177.237 272.373 179.157C272.358 184.198 272.319 189.238 272.275 194.278C272.234 199.426 272.215 204.574 272.195 209.723C272.152 219.815 272.084 229.908 272 240C273.064 239.991 274.128 239.982 275.225 239.973C285.259 239.892 295.293 239.832 305.328 239.793C310.487 239.772 315.646 239.744 320.804 239.698C325.784 239.655 330.763 239.631 335.743 239.62C337.642 239.613 339.54 239.599 341.439 239.577C344.101 239.548 346.762 239.544 349.424 239.546C350.598 239.524 350.598 239.524 351.796 239.502C356.987 239.541 359.854 240.623 364 244C367.628 247.819 368.31 250.883 368.5 256C368.31 261.117 367.628 264.181 364 268C359.022 272.055 355.573 272.567 349.424 272.454C348.585 272.455 347.745 272.455 346.88 272.456C344.12 272.453 341.361 272.422 338.602 272.391C336.682 272.383 334.762 272.377 332.843 272.373C327.802 272.358 322.762 272.319 317.722 272.275C312.574 272.234 307.426 272.215 302.277 272.195C292.185 272.152 282.092 272.084 272 272C272.009 273.064 272.018 274.128 272.027 275.224C272.108 285.259 272.168 295.293 272.207 305.328C272.228 310.487 272.256 315.645 272.302 320.804C272.345 325.784 272.369 330.763 272.38 335.743C272.387 337.642 272.401 339.54 272.423 341.439C272.452 344.101 272.456 346.762 272.454 349.424C272.468 350.207 272.483 350.989 272.498 351.796C272.459 356.987 271.377 359.854 268 364C264.181 367.628 261.117 368.31 256 368.5C250.883 368.31 247.819 367.628 244 364C239.945 359.021 239.433 355.573 239.546 349.424C239.545 348.585 239.545 347.745 239.544 346.88C239.547 344.12 239.578 341.361 239.609 338.601C239.617 336.682 239.623 334.762 239.627 332.843C239.642 327.802 239.681 322.762 239.725 317.722C239.766 312.574 239.785 307.425 239.805 302.277C239.848 292.185 239.916 282.092 240 272C238.936 272.009 237.872 272.018 236.775 272.027C226.741 272.108 216.707 272.168 206.672 272.207C201.513 272.228 196.354 272.256 191.196 272.302C186.216 272.345 181.237 272.369 176.257 272.379C174.358 272.387 172.46 272.401 170.561 272.423C167.899 272.452 165.238 272.456 162.576 272.454C161.793 272.468 161.01 272.483 160.204 272.498C155.013 272.459 152.146 271.377 148 268C144.372 264.181 143.69 261.117 143.5 256C143.69 250.883 144.372 247.819 148 244C152.978 239.945 156.427 239.433 162.576 239.546C163.415 239.545 164.255 239.545 165.12 239.544C167.88 239.547 170.639 239.578 173.398 239.609C175.318 239.617 177.238 239.622 179.157 239.626C184.198 239.642 189.238 239.681 194.278 239.725C199.426 239.766 204.574 239.784 209.723 239.805C219.815 239.847 229.908 239.916 240 240C239.991 238.936 239.982 237.872 239.973 236.775C239.892 226.741 239.832 216.706 239.793 206.672C239.772 201.513 239.744 196.354 239.698 191.196C239.655 186.216 239.631 181.237 239.62 176.257C239.613 174.358 239.599 172.46 239.577 170.561C239.548 167.899 239.544 165.238 239.546 162.576C239.532 161.793 239.517 161.01 239.502 160.204C239.541 155.013 240.623 152.146 244 148C249.271 142.992 255.108 143.072 262 144Z" fill="#556866"/>
</svg>
