<svg width="143" height="132" viewBox="0 0 143 132" fill="none" xmlns="http://www.w3.org/2000/svg">
<path d="M1.48041 2.51296C-0.211276 6.5678 2.15708 9.37499 7.73963 9.84286L12.9839 10.3107L21.7806 39.7863L30.4082 69.2618L27.194 82.518C24.8256 92.6551 24.4873 96.2421 26.0098 97.8016C27.7015 99.6731 36.8366 99.985 78.9595 99.6731L129.879 99.2052V95.3063V91.4074L83.3579 90.6277L36.8366 89.8479L37.3441 85.949C38.1899 77.8393 36.8366 78.1512 78.7903 78.1512C114.316 78.1512 118.545 77.8393 120.913 75.3441C125.819 70.5094 142.567 34.4838 142.567 29.1813C142.567 20.7597 140.198 20.4478 79.9745 20.4478H26.179L24.9948 15.3013C24.3181 12.6501 23.1339 7.9714 22.2881 5.1642C20.5964 0.32959 20.2581 0.173637 11.4613 0.173637C5.03294 0.173637 2.32625 0.797455 1.48041 2.51296ZM132.417 31.9885C132.417 32.1445 128.187 40.566 123.112 50.7031L113.808 68.7939H77.6061H41.235L36.8366 55.0699C34.4682 47.584 31.7615 39.4744 30.9157 36.9791C29.9007 34.4838 29.224 32.1445 29.224 31.9885C29.224 31.6766 52.4001 31.3647 80.8203 31.3647C109.241 31.3647 132.417 31.6766 132.417 31.9885Z" fill="#6E7C76"/>
<path d="M37.6829 111.994C30.747 114.177 28.5478 124.158 33.9612 128.525C40.7279 134.139 51.2164 129.928 51.2164 121.663C51.2164 114.801 44.2805 109.966 37.6829 111.994Z" fill="#6E7C76"/>
<path d="M105.35 112.929C99.9361 115.425 98.5828 123.846 102.981 128.213C109.071 134.451 120.575 130.084 120.575 121.663C120.575 113.865 112.793 109.498 105.35 112.929Z" fill="#6E7C76"/>
</svg>
