<svg xmlns="http://www.w3.org/2000/svg" xmlns:xlink="http://www.w3.org/1999/xlink" width="500" zoomAndPan="magnify" viewBox="0 0 375 374.999991" height="500" preserveAspectRatio="xMidYMid meet" version="1.0"><defs><clipPath id="a0c81e2ac9"><path d="M 4.265625 17.589844 L 369 17.589844 L 369 249 L 4.265625 249 Z M 4.265625 17.589844 " clip-rule="nonzero"/></clipPath></defs><g clip-path="url(#a0c81e2ac9)"><path fill="#000000" d="M 357.734375 57.417969 C 355.253906 57.34375 352.761719 57.402344 350.277344 57.402344 C 265.472656 57.402344 180.660156 57.402344 95.851562 57.402344 C 92.609375 57.402344 89.367188 57.402344 85.921875 57.402344 C 83.050781 46.546875 80.292969 36.445312 77.722656 26.292969 C 76.53125 21.578125 74.265625 17.816406 69.03125 17.773438 C 50.246094 17.589844 31.457031 17.589844 12.679688 17.761719 C 7.5625 17.816406 4.371094 20.921875 4.300781 26.144531 C 4.230469 31.324219 7.199219 34.328125 12.386719 34.8125 C 14.851562 35.042969 17.351562 34.949219 19.84375 34.949219 C 33.628906 34.957031 47.40625 34.957031 61.671875 34.957031 C 62.5625 37.792969 63.210938 39.609375 63.695312 41.480469 C 80.335938 106.105469 96.96875 170.734375 113.566406 235.371094 C 116.730469 247.710938 117.5 248.414062 130.519531 248.414062 C 188.253906 248.421875 245.996094 248.429688 303.726562 248.421875 C 313.804688 248.421875 317.878906 245.992188 318.101562 239.9375 C 318.335938 233.578125 314.039062 230.847656 303.519531 230.835938 C 254.351562 230.820312 205.179688 230.828125 156 230.828125 C 149.363281 230.828125 142.722656 231.113281 136.125 230.648438 C 133.875 230.492188 130.363281 228.890625 129.816406 227.1875 C 127.316406 219.367188 125.667969 211.28125 123.367188 201.898438 C 130.855469 201.898438 137.410156 201.898438 143.976562 201.898438 C 200.03125 201.898438 256.078125 201.90625 312.136719 201.886719 C 322.824219 201.886719 324.019531 200.996094 327.496094 190.703125 C 332.269531 176.589844 337.003906 162.457031 341.757812 148.332031 C 350.390625 122.695312 359.101562 97.085938 367.644531 71.421875 C 370.671875 62.273438 367.335938 57.730469 357.734375 57.417969 Z M 335.816406 111.289062 C 328.335938 133.5 320.699219 155.667969 313.433594 177.945312 C 311.882812 182.6875 309.59375 184.398438 304.59375 184.339844 C 270.949219 183.933594 237.292969 183.699219 203.648438 183.628906 C 187.742188 183.59375 171.835938 184.105469 155.929688 184.242188 C 144.929688 184.339844 133.910156 184.40625 122.914062 184.035156 C 121.082031 183.976562 118.167969 181.863281 117.726562 180.179688 C 108.539062 145.574219 99.648438 110.878906 90.488281 75.425781 C 176.316406 75.425781 261.398438 75.425781 347.804688 75.425781 C 343.644531 87.875 339.753906 99.59375 335.816406 111.289062 Z M 335.816406 111.289062 " fill-opacity="1" fill-rule="nonzero"/></g><path fill="#000000" d="M 275.394531 266.957031 C 250.535156 267 230.132812 287.722656 230.503906 312.546875 C 230.867188 337.265625 251.046875 356.910156 275.816406 356.667969 C 300.65625 356.425781 320.378906 336.445312 320.1875 311.707031 C 319.996094 287.015625 299.878906 266.914062 275.394531 266.957031 Z M 275.023438 339.296875 C 260.015625 339.082031 247.914062 326.59375 248.132812 311.550781 C 248.347656 296.371094 260.542969 284.550781 275.792969 284.722656 C 290.953125 284.902344 302.898438 297.160156 302.699219 312.320312 C 302.5 327.320312 289.976562 339.515625 275.023438 339.296875 Z M 275.023438 339.296875 " fill-opacity="1" fill-rule="nonzero"/><path fill="#000000" d="M 147.238281 266.984375 C 122.976562 266.195312 102.140625 286.125 101.492188 310.738281 C 100.835938 335.5625 120.128906 356 144.851562 356.648438 C 170.070312 357.316406 190.628906 337.792969 191.125 312.710938 C 191.597656 288.214844 171.984375 267.777344 147.238281 266.984375 Z M 145.800781 339.289062 C 130.796875 339.011719 118.695312 326.507812 118.917969 311.507812 C 119.152344 296.433594 131.433594 284.59375 146.691406 284.738281 C 161.804688 284.886719 173.714844 297.160156 173.523438 312.398438 C 173.351562 327.378906 160.78125 339.566406 145.800781 339.289062 Z M 145.800781 339.289062 " fill-opacity="1" fill-rule="nonzero"/></svg>