<svg width="50" height="50" viewBox="0 0 50 50" fill="none" xmlns="http://www.w3.org/2000/svg">
<path d="M27.414 1.56964L33.0533 13.5182C33.4455 14.3492 34.2037 14.925 35.0809 15.0581L47.6915 16.9743C49.9005 17.3102 50.7818 20.1479 49.184 21.7762L40.059 31.0767C39.4249 31.7235 39.1349 32.6559 39.2851 33.5687L41.4389 46.7017C41.8164 49.0017 39.5073 50.7554 37.5319 49.6703L26.2531 43.4702C25.4688 43.0395 24.5312 43.0395 23.7469 43.4702L12.4681 49.6703C10.4927 50.7565 8.18359 49.0017 8.56115 46.7017L10.7149 33.5687C10.8651 32.6559 10.5751 31.7235 9.941 31.0767L0.816014 21.7762C-0.781824 20.1468 0.09949 17.3091 2.30851 16.9743L14.9191 15.0581C15.7963 14.925 16.5545 14.3492 16.9467 13.5182L22.586 1.56964C23.5727 -0.523212 26.4263 -0.523212 27.414 1.56964Z" fill="black"/>
</svg>
